<svg width="92" height="93" viewBox="0 0 92 93" fill="none" xmlns="http://www.w3.org/2000/svg">
<path d="M52.6371 0.838269C52.9796 0.866818 53.2794 0.881093 53.5221 0.881093L53.4935 1.10949C53.0938 1.16658 52.7513 1.46635 52.48 2.03733L49.0827 8.83201L48.9828 8.81773L48.8971 8.80346L46.7417 1.22368C46.5989 0.724073 46.3563 0.452857 46.0137 0.410033L46.0422 0.181641C46.3563 0.238739 46.7702 0.281562 47.2841 0.33866C47.955 0.395758 48.4546 0.438582 48.7829 0.438582L48.7544 0.666975C48.4546 0.6527 48.2405 0.666975 48.112 0.709798C47.9836 0.752622 47.9122 0.866818 47.8979 1.00956C47.8836 1.13803 47.9122 1.3236 47.9836 1.56627L49.568 7.36173L51.9233 2.62259C52.1232 2.23717 52.2231 1.92313 52.2516 1.69474C52.2802 1.45207 52.2088 1.26651 52.0518 1.13803C51.8948 1.00956 51.6378 0.938191 51.2952 0.895367L51.3238 0.666975C51.7378 0.738347 52.1803 0.795446 52.6371 0.838269Z" fill="#292F36"/>
<path d="M62.2291 3.85028C62.0864 3.85028 61.9722 3.90737 61.8865 4.02157C61.8009 4.13577 61.701 4.32134 61.601 4.59255L59.5598 10.0169C59.4599 10.2881 59.4028 10.5022 59.4028 10.645C59.4028 10.7877 59.4456 10.9019 59.5455 10.9875C59.6454 11.0732 59.831 11.1731 60.0879 11.2873L60.0023 11.5014C59.674 11.3587 59.2172 11.1731 58.6319 10.9447C58.0039 10.7021 57.5328 10.545 57.2188 10.4451L57.3044 10.231C57.5756 10.3166 57.7755 10.3595 57.9039 10.3595C58.0324 10.3595 58.1609 10.3024 58.2465 10.1882C58.3322 10.074 58.4321 9.8884 58.532 9.61719L60.5733 4.19286C60.6732 3.92165 60.7303 3.70753 60.7303 3.56479C60.7303 3.42204 60.6875 3.30784 60.5875 3.2222C60.4876 3.13655 60.302 3.03663 60.0451 2.92243L60.1308 2.70831C60.4305 2.83678 60.8873 3.02235 61.5154 3.26502C62.1006 3.49341 62.5717 3.65043 62.9143 3.75035L62.8286 3.96447C62.5717 3.87883 62.3719 3.836 62.2291 3.85028Z" fill="#292F36"/>
<path d="M74.9337 11.4014C74.791 11.3729 74.6483 11.4157 74.5198 11.5014C74.3913 11.587 74.2343 11.7583 74.063 12.001L69.9234 17.6109L69.7093 17.4538L70.266 8.43234L66.5974 13.3999C66.4261 13.6425 66.3119 13.8424 66.2548 13.9994C66.1977 14.1564 66.2263 14.2992 66.2977 14.4419C66.369 14.5847 66.5403 14.7417 66.783 14.9415L66.6402 15.1271C66.4261 14.9415 66.1121 14.6989 65.6981 14.3848C65.327 14.1136 65.0272 13.8995 64.7988 13.771L64.9416 13.5854C65.17 13.7425 65.3555 13.8281 65.4983 13.8424C65.641 13.8709 65.7838 13.8281 65.9122 13.7425C66.0407 13.6425 66.1977 13.4855 66.369 13.2429L69.7378 8.675C69.9091 8.43234 70.0233 8.24677 70.0661 8.1183C70.109 7.98983 70.0947 7.86136 70.0233 7.74716C69.9519 7.63296 69.8092 7.49022 69.5808 7.30465L69.7235 7.11908C69.9091 7.29037 70.1946 7.51877 70.58 7.78998C70.8655 8.0041 71.1082 8.1754 71.3366 8.30387L70.8798 15.8694L73.8489 11.844C74.0202 11.6013 74.1486 11.4014 74.1915 11.2444C74.2343 11.0874 74.22 10.9447 74.1486 10.8019C74.0773 10.6592 73.906 10.4879 73.6633 10.3023L73.8061 10.1167C74.0202 10.3023 74.3342 10.545 74.7482 10.859C75.1193 11.1302 75.4191 11.3443 75.6475 11.4728L75.5047 11.6584C75.2621 11.5156 75.0765 11.4157 74.9337 11.4014Z" fill="#292F36"/>
<path d="M79.716 17.8392C80.0871 17.568 80.4725 17.2682 80.8865 16.8971C81.2434 17.4395 81.8715 18.3388 82.7708 19.6093C83.67 20.8654 84.3124 21.7504 84.6978 22.2643C84.2125 22.5498 83.7985 22.8068 83.4274 23.0637C83.1133 23.2921 82.8564 23.4919 82.6708 23.6489L82.5138 23.4348C82.9706 23.0351 83.2846 22.7068 83.4702 22.4642C83.6558 22.2215 83.7271 21.9646 83.7129 21.6933C83.6986 21.4221 83.5273 21.0938 83.2561 20.6941L82.8849 20.1802L77.4749 24.0344C77.218 24.2199 77.0324 24.3912 76.9467 24.5197C76.8611 24.6482 76.8325 24.8052 76.8896 24.9765C76.9325 25.1335 77.0609 25.3619 77.2465 25.6474L77.0609 25.7901C76.8468 25.4475 76.5185 24.9622 76.0903 24.377C75.6335 23.7346 75.2909 23.2778 75.0625 22.9923L75.2481 22.8496C75.4622 23.1208 75.6335 23.3064 75.7762 23.4063C75.919 23.5062 76.0617 23.5348 76.2187 23.4919C76.3758 23.4491 76.5899 23.3349 76.8468 23.1493L82.2569 19.2952L81.8857 18.7813C81.6002 18.3816 81.3433 18.139 81.1006 18.0248C80.858 17.9106 80.5867 17.8963 80.3013 17.9962C80.0158 18.0962 79.6018 18.2817 79.0736 18.5815L78.9166 18.3674C79.1307 18.2532 79.3877 18.0819 79.716 17.8392Z" fill="#292F36"/>
<path d="M82.4558 37.6524L82.2275 37.7237C82.1418 37.4097 82.0276 37.01 81.8563 36.5247C81.6422 35.8966 81.4709 35.4255 81.3424 35.1115L81.5708 35.0401C81.6707 35.3113 81.7849 35.5112 81.8706 35.6111C81.9705 35.711 82.099 35.7396 82.2417 35.6825C82.3702 35.6396 82.5272 35.5397 82.7128 35.3827L84.2973 34.0837L83.398 31.4144L82.0704 31.3573C81.6422 31.3287 81.3139 31.3573 81.0855 31.4429C80.8571 31.5286 80.7143 31.657 80.6573 31.8426C80.6144 32.0282 80.643 32.2994 80.7429 32.6277L80.5145 32.6991C80.4003 32.2709 80.2576 31.8426 80.1148 31.4144C80.0006 31.0861 79.9007 30.8149 79.8008 30.6007L80.0292 30.5294C80.229 30.8719 80.6573 31.0575 81.2853 31.0718L88.8794 31.4144L88.9365 31.5857L82.8841 36.6246C82.5129 36.9814 82.3702 37.3098 82.4558 37.6524ZM87.4091 31.5857L83.6692 31.4287L84.5114 33.941L87.4091 31.5857Z" fill="#292F36"/>
<path d="M83.4974 48.5724C83.6401 48.5153 83.7115 48.4439 83.7115 48.344C83.7115 48.2869 83.6972 48.2441 83.6687 48.2013C83.6401 48.1584 83.583 48.0728 83.4974 47.9586C83.2832 47.6874 83.1262 47.4019 83.012 47.1164C82.8978 46.8309 82.8407 46.5026 82.8407 46.1457C82.8265 45.3464 82.9835 44.6612 83.2975 44.0759C83.6258 43.4907 84.0826 43.0481 84.7107 42.7341C85.3245 42.4201 86.0668 42.263 86.9375 42.2488C87.8368 42.2345 88.6219 42.3772 89.2928 42.6913C89.9637 43.0053 90.4919 43.4336 90.863 44.0045C91.2342 44.5755 91.434 45.2179 91.434 45.9316C91.434 46.2456 91.4055 46.5311 91.3484 46.7738C91.2913 47.0165 91.2056 47.2306 91.1057 47.4162C91.0058 47.6017 90.8773 47.8158 90.706 48.0442C90.6346 48.1442 90.5918 48.2298 90.5918 48.2869C90.5918 48.4297 90.8345 48.5296 91.3055 48.5724V48.8436C90.8059 48.8151 89.9066 48.8151 88.6219 48.8436V48.5724C89.0359 48.501 89.3785 48.4154 89.6497 48.3297C89.9209 48.2441 90.1493 48.1156 90.3491 47.9586C90.6204 47.7302 90.8488 47.4304 91.0058 47.0593C91.1628 46.6882 91.2342 46.317 91.2342 45.9173C91.2199 45.4034 91.0486 44.9609 90.706 44.5755C90.3634 44.1901 89.8781 43.9046 89.2643 43.6905C88.6362 43.4907 87.9225 43.3907 87.0945 43.405C86.1524 43.4193 85.3959 43.5335 84.7963 43.7476C84.1968 43.9617 83.7686 44.2758 83.4831 44.6897C83.1976 45.1037 83.0691 45.6318 83.0834 46.2742C83.0977 46.7453 83.2261 47.1449 83.4688 47.4875C83.5687 47.6303 83.6544 47.7159 83.7543 47.7587C83.84 47.8016 83.9684 47.8158 84.1254 47.8158L85.2531 47.8016C85.5814 47.8016 85.8098 47.7587 85.9669 47.7016C86.1096 47.6445 86.2238 47.5304 86.2666 47.3591C86.3237 47.202 86.3523 46.9451 86.3523 46.6025H86.5807C86.5664 46.9879 86.5521 47.5304 86.5664 48.2584C86.5807 48.8008 86.5949 49.2147 86.6235 49.4717H86.3951C86.3808 49.2861 86.338 49.1577 86.2952 49.0863C86.2523 49.0149 86.1524 48.9578 86.024 48.9293C85.8955 48.9007 85.6814 48.8864 85.3816 48.9007L83.0691 48.9435V48.7151C83.1976 48.658 83.3546 48.6295 83.4974 48.5724Z" fill="#292F36"/>
<path d="M81.7998 60.72C81.3858 60.5915 80.9005 60.463 80.3438 60.3488C80.5293 59.8492 80.8005 59.007 81.1859 57.8079C81.6427 56.3805 81.971 55.2956 82.1709 54.5676L82.3993 54.639C82.3279 54.9102 82.2994 55.1101 82.2994 55.2528C82.3136 55.3955 82.3707 55.4955 82.4849 55.5811C82.5991 55.6668 82.799 55.7524 83.0702 55.8381L88.5944 57.5796C88.8799 57.6652 89.0798 57.708 89.2225 57.708C89.3653 57.708 89.4795 57.6509 89.5651 57.5367C89.6507 57.4225 89.7364 57.237 89.8363 56.98L90.0647 57.0514C89.8078 57.7794 89.4652 58.85 89.0084 60.2774C88.6658 61.3623 88.4231 62.1474 88.3089 62.6185C87.8379 62.4186 87.4096 62.2473 87.01 62.1331C86.7245 62.0475 86.4818 61.9761 86.3105 61.9476L86.3961 61.6906C86.8958 61.7905 87.2812 61.8334 87.5381 61.8334C87.7951 61.8334 88.0092 61.7477 88.1805 61.5764C88.3518 61.4194 88.4945 61.1339 88.623 60.7485L88.9085 59.8207C88.9941 59.5494 89.0369 59.3496 89.0227 59.2211C89.0084 59.0927 88.9656 58.9785 88.8514 58.8928C88.7372 58.8072 88.5516 58.7215 88.2661 58.6359L85.6396 57.8079L85.4112 58.5502C85.297 58.9214 85.3256 59.2069 85.5111 59.4067C85.6967 59.6065 85.8965 59.7493 86.1249 59.8492C86.3533 59.9491 86.4961 60.0205 86.5532 60.049L86.4675 60.306C86.1107 60.1632 85.7681 60.0348 85.4255 59.9349L84.8973 59.7778C84.5262 59.6636 83.9838 59.5066 83.2986 59.3496L83.3842 59.0927C83.4413 59.1069 83.6269 59.1355 83.9409 59.2069C84.255 59.2639 84.5262 59.2354 84.7403 59.1212C84.9544 59.007 85.0972 58.7929 85.1971 58.4931L85.4255 57.7508L82.7419 56.9087C82.4564 56.823 82.2565 56.7802 82.1138 56.7802C81.971 56.7802 81.8568 56.8373 81.7855 56.9515C81.6998 57.0657 81.6142 57.2512 81.5285 57.5225L81.2716 58.3361C81.1288 58.8072 81.0718 59.1783 81.1288 59.4495C81.1717 59.735 81.3144 59.9634 81.5571 60.1632C81.7998 60.3488 82.1709 60.5629 82.6705 60.7913L82.5849 61.0483C82.4136 60.9198 82.1423 60.8342 81.7998 60.72Z" fill="#292F36"/>
<path d="M77.7317 78.2348C77.7888 78.1064 77.7745 77.9779 77.7174 77.8494C77.6603 77.7209 77.5175 77.5639 77.3034 77.3498L73.1067 73.3387C72.8926 73.1388 72.7213 73.0104 72.5928 72.9533C72.4644 72.8962 72.3359 72.8962 72.2074 72.9533C72.0789 73.0104 71.9219 73.1388 71.7221 73.3387L71.5508 73.1816C71.822 72.939 72.1646 72.5821 72.6071 72.1396C73.0639 71.6543 73.4065 71.2831 73.6206 71.0405L73.7919 71.1975C73.6063 71.4116 73.4921 71.5829 73.435 71.6971C73.3779 71.8256 73.3922 71.954 73.4493 72.0825C73.5064 72.211 73.6491 72.368 73.8633 72.5821L78.06 76.5933C78.2741 76.7931 78.4454 76.9216 78.5739 76.9787C78.7023 77.0358 78.8308 77.0358 78.9593 76.9787C79.0877 76.9216 79.2448 76.7931 79.4446 76.5933L79.6159 76.7503C79.3732 76.9644 79.0164 77.3213 78.5596 77.8066C78.1171 78.2634 77.7888 78.6345 77.5604 78.9057L77.3891 78.7487C77.5604 78.5346 77.6746 78.3633 77.7317 78.2348Z" fill="#292F36"/>
<path d="M65.8401 86.9422C65.9258 86.8138 65.9401 86.6853 65.9115 86.5283C65.883 86.3713 65.783 86.1714 65.626 85.9002L62.0859 79.8906L62.3143 79.7479L70.3937 83.7876L67.2676 78.4774C67.1106 78.2205 66.9821 78.0349 66.8536 77.935C66.7252 77.8351 66.5824 77.7923 66.4254 77.8065C66.2684 77.8208 66.0543 77.9065 65.783 78.0492L65.6546 77.8494C65.9115 77.7352 66.2541 77.5353 66.6966 77.2784C67.0963 77.0357 67.3961 76.8501 67.6102 76.6931L67.7244 76.893C67.496 77.0357 67.339 77.1784 67.2676 77.3069C67.1819 77.4354 67.1677 77.5639 67.1962 77.7209C67.2248 77.8779 67.3247 78.0777 67.4817 78.349L70.3652 83.2451C70.5079 83.5021 70.6364 83.6734 70.7506 83.759C70.8648 83.8447 70.979 83.8875 71.1217 83.8589C71.2502 83.8304 71.45 83.759 71.6927 83.6305L71.8069 83.8304C71.5785 83.9446 71.2645 84.1159 70.8505 84.3585C70.5507 84.5298 70.2938 84.7011 70.0797 84.8439L63.2993 81.4608L65.8401 85.7717C65.9972 86.0287 66.1256 86.2142 66.2541 86.3142C66.3683 86.4141 66.511 86.4569 66.6823 86.4426C66.8536 86.4283 67.0678 86.3427 67.339 86.2L67.4532 86.3998C67.1962 86.514 66.8536 86.7138 66.4111 86.9708C66.0114 87.2134 65.7117 87.399 65.4976 87.556L65.3834 87.3562C65.5975 87.1992 65.7545 87.0564 65.8401 86.9422Z" fill="#292F36"/>
<path d="M57.9897 88.8123C58.0896 89.2549 58.218 89.7402 58.3893 90.2541C57.747 90.3683 56.6764 90.5967 55.1633 90.9107C53.6502 91.239 52.5939 91.4817 51.9658 91.6387C51.8944 91.082 51.8231 90.5967 51.7231 90.1542C51.6375 89.7687 51.5661 89.4547 51.4805 89.2263L51.7374 89.1692C51.923 89.7545 52.0943 90.1684 52.2513 90.4396C52.4083 90.7109 52.6082 90.8822 52.8651 90.9678C53.122 91.0534 53.4932 91.0392 53.9642 90.9392L54.578 90.8108L53.1791 84.3159C53.1078 84.0018 53.0364 83.7734 52.9365 83.645C52.8366 83.5165 52.7224 83.4308 52.5511 83.4166C52.3798 83.388 52.1228 83.4166 51.7802 83.4737L51.7374 83.2453C52.1371 83.1882 52.7081 83.074 53.4218 82.917C54.1784 82.7457 54.7493 82.6172 55.1062 82.5173L55.149 82.7457C54.8064 82.8313 54.578 82.917 54.4353 83.0026C54.2926 83.0883 54.2069 83.2167 54.1784 83.3737C54.1498 83.5308 54.1641 83.7734 54.2355 84.0875L55.6344 90.5824L56.2482 90.4539C56.7192 90.354 57.0618 90.2112 57.2617 90.0257C57.4615 89.8401 57.5757 89.5974 57.6042 89.2977C57.6328 88.9979 57.6185 88.5411 57.5471 87.9416L57.8041 87.8845C57.8469 88.1129 57.904 88.4269 57.9897 88.8123Z" fill="#292F36"/>
<path d="M39.0468 84.8011C39.0896 84.3586 39.1039 83.859 39.1039 83.3022C39.632 83.3736 40.5171 83.4593 41.7732 83.5735C43.2578 83.7019 44.3854 83.8019 45.1563 83.8447L45.142 84.0731C44.8565 84.0588 44.6567 84.0731 44.5282 84.1159C44.3997 84.1587 44.2998 84.2301 44.2427 84.3586C44.1856 84.487 44.1428 84.7012 44.1142 84.9866L43.6003 90.7678C43.5718 91.0533 43.5861 91.2674 43.6146 91.4102C43.6432 91.5529 43.7288 91.6528 43.8573 91.7099C43.9858 91.767 44.1856 91.8241 44.4568 91.8527L44.4425 92.0811C43.686 91.9954 42.5583 91.8812 41.0738 91.7528C39.9318 91.6528 39.1181 91.5958 38.6328 91.5672C38.7327 91.0676 38.8041 90.6108 38.8327 90.1968C38.8612 89.8971 38.8755 89.6544 38.8612 89.4688L39.1324 89.4974C39.1467 90.0113 39.1752 90.3824 39.2466 90.6394C39.3037 90.8963 39.4322 91.0819 39.632 91.2103C39.8176 91.3388 40.1316 91.4245 40.5313 91.453L41.502 91.5386C41.7875 91.5672 41.9873 91.5529 42.1158 91.5244C42.2443 91.4958 42.3442 91.4102 42.4013 91.2817C42.4584 91.1532 42.5012 90.9391 42.5298 90.6536L42.7724 87.9129L42.0016 87.8415C41.6162 87.813 41.345 87.8986 41.188 88.127C41.0452 88.3554 40.931 88.5838 40.8882 88.8265C40.8311 89.0692 40.8025 89.2262 40.7883 89.2975L40.5171 89.269C40.5741 88.8836 40.617 88.5267 40.6598 88.1699L40.7026 87.6132C40.7312 87.2135 40.7597 86.671 40.7883 85.9573L41.0595 85.9859C41.0595 86.043 41.0738 86.2285 41.0738 86.5568C41.088 86.8852 41.1594 87.1421 41.3307 87.3134C41.4877 87.499 41.7304 87.5989 42.0444 87.6274L42.8153 87.6988L43.0579 84.901C43.0865 84.6155 43.0722 84.4014 43.0436 84.2586C43.0151 84.1302 42.9295 84.0302 42.801 83.9732C42.6725 83.9161 42.4727 83.8732 42.2014 83.8447L41.345 83.7733C40.8596 83.7305 40.4885 83.759 40.2173 83.8732C39.9603 83.9731 39.7605 84.173 39.6178 84.4442C39.475 84.7154 39.3608 85.1294 39.2466 85.6718L38.9754 85.6433C38.9754 85.4292 39.004 85.1437 39.0468 84.8011Z" fill="#292F36"/>
<path d="M27.8137 79.5052C28.0278 79.4624 28.2705 79.5052 28.5274 79.6194C28.8272 79.7479 29.0271 79.9335 29.1413 80.1761C29.2555 80.4331 29.2697 80.7899 29.1984 81.261L28.9842 82.4315C28.9129 82.8455 28.87 83.1595 28.8558 83.4022C28.8415 83.6306 28.8986 83.8447 28.9985 84.0303C29.0984 84.2158 29.284 84.3586 29.5552 84.4728L30.583 84.901L31.625 82.4172C31.7392 82.146 31.7963 81.9462 31.8106 81.8034C31.8249 81.6607 31.7678 81.5465 31.6678 81.4466C31.5679 81.3467 31.3966 81.2467 31.1397 81.1325L31.2253 80.9184C31.5536 81.0754 31.9962 81.2753 32.5814 81.518C33.1952 81.7749 33.6663 81.9605 33.9803 82.0604L33.8947 82.2745C33.6235 82.1746 33.4236 82.1318 33.2951 82.1175C33.1524 82.1175 33.0382 82.1603 32.9526 82.2745C32.8526 82.3744 32.7527 82.56 32.6385 82.8312L30.3974 88.1842C30.2832 88.4554 30.2261 88.6552 30.2118 88.798C30.1976 88.9407 30.2547 89.0549 30.3546 89.1548C30.4545 89.2547 30.6258 89.3547 30.8827 89.4831L30.7971 89.6973C30.4973 89.5545 30.0691 89.3547 29.4981 89.112C29.2126 88.9978 28.9129 88.8693 28.5703 88.7266C28.2277 88.5839 27.9993 88.4982 27.8708 88.4411C27.3141 88.1984 26.8716 87.9272 26.5433 87.5989C26.215 87.2706 26.0294 86.928 25.9438 86.5569C25.8581 86.1857 25.9009 85.8289 26.058 85.472C26.1722 85.1865 26.3577 84.9296 26.6147 84.7012C26.8716 84.4728 27.1999 84.3015 27.5996 84.2158C27.9993 84.1302 28.4846 84.1445 29.0128 84.2729L28.8843 84.2016C28.5845 84.016 28.3562 83.8304 28.2134 83.6306C28.0707 83.445 27.9707 83.2309 27.9422 83.0025C27.8994 82.7741 27.9136 82.4886 27.9707 82.146L28.1706 80.9327C28.2134 80.69 28.242 80.5045 28.242 80.3617C28.242 80.219 28.2277 80.1048 28.1849 80.0191C28.142 79.9335 28.0707 79.8621 27.9707 79.8336C27.8565 79.7765 27.7424 79.7765 27.6424 79.805C27.5425 79.8336 27.3998 79.9049 27.2142 80.0048L27.1 79.8193C27.3569 79.6623 27.5996 79.5481 27.8137 79.5052ZM28.5274 84.587C28.1849 84.6298 27.9136 84.7583 27.6995 84.9724C27.4854 85.1865 27.2998 85.472 27.1428 85.8431C26.9002 86.4284 26.8431 86.9423 27.0001 87.3562C27.1571 87.7702 27.5425 88.1128 28.1849 88.384C28.4133 88.4839 28.5845 88.5268 28.7273 88.5125C28.8558 88.5125 28.97 88.4554 29.0699 88.3412C29.1698 88.227 29.2697 88.0414 29.3696 87.7845L30.4831 85.1294L29.7551 84.8296C29.284 84.6298 28.87 84.5441 28.5274 84.587Z" fill="#292F36"/>
<path d="M16.6793 81.4466C16.8078 81.4894 16.9363 81.4609 17.0505 81.3895C17.1647 81.3181 17.3217 81.1611 17.5072 80.9327L21.0902 76.3649C21.2757 76.1365 21.3899 75.9509 21.4327 75.8225C21.4756 75.694 21.4613 75.5655 21.3899 75.4513C21.3185 75.3371 21.1758 75.1801 20.9617 74.9945L21.1044 74.809C21.3756 75.0516 21.7468 75.3657 22.2464 75.7511C22.7745 76.165 23.1742 76.4648 23.4454 76.6504L23.3027 76.8359C23.0743 76.6647 22.8887 76.5647 22.7603 76.5362C22.6318 76.4934 22.5033 76.5076 22.3891 76.5933C22.2749 76.6646 22.1179 76.8217 21.9323 77.0501L18.3494 81.6179C18.1639 81.8463 18.0497 82.0319 18.0069 82.1603C17.964 82.2888 17.9783 82.4173 18.0497 82.5315C18.121 82.6457 18.2638 82.8027 18.4779 82.9883L18.3352 83.1738C18.0925 82.9597 17.7071 82.6457 17.1789 82.2174C16.6793 81.832 16.2796 81.5323 15.9941 81.3324L16.1369 81.1469C16.3796 81.3039 16.5508 81.4038 16.6793 81.4466Z" fill="#292F36"/>
<path d="M7.45759 71.2832C7.40049 70.6409 7.54324 69.9985 7.87155 69.3847C8.21414 68.7566 8.72802 68.1999 9.44175 67.6717C10.1412 67.1721 10.8407 66.8438 11.5687 66.7154C12.2967 66.5869 12.9676 66.6297 13.5956 66.8724C14.2237 67.115 14.7519 67.529 15.1658 68.1143C15.6084 68.7138 15.851 69.3419 15.9081 69.9842C15.9652 70.6266 15.8225 71.2689 15.4942 71.8827C15.1516 72.5108 14.6377 73.0675 13.924 73.5957C13.2245 74.0953 12.5251 74.4236 11.797 74.5521C11.0833 74.6805 10.3981 74.6377 9.77007 74.3951C9.14199 74.1524 8.61383 73.7384 8.19987 73.1674C7.75736 72.5536 7.51469 71.9256 7.45759 71.2832ZM9.59877 73.8241C10.0984 73.924 10.6694 73.8812 11.2974 73.6813C11.9255 73.4815 12.5536 73.1532 13.2102 72.6678C13.8669 72.1968 14.3807 71.6829 14.7376 71.1405C15.1087 70.598 15.3086 70.0556 15.3371 69.5417C15.38 69.0278 15.2515 68.571 14.9803 68.1856C14.6805 67.7859 14.2951 67.529 13.7812 67.4291C13.2816 67.3292 12.7106 67.372 12.0825 67.5718C11.4545 67.7717 10.8264 68.1 10.1698 68.571C9.51312 69.0421 8.99924 69.556 8.64238 70.1127C8.27124 70.6551 8.0714 71.1833 8.02857 71.7114C7.98575 72.2253 8.11422 72.6821 8.38544 73.0675C8.6852 73.4672 9.08489 73.7242 9.59877 73.8241Z" fill="#292F36"/>
<path d="M8.5567 54.0966C8.728 54.2251 8.85647 54.4392 8.94211 54.7247C9.04204 55.0245 9.02776 55.31 8.91356 55.5526C8.79937 55.8096 8.52815 56.0522 8.11419 56.2949L7.07215 56.8801C6.71529 57.0943 6.44407 57.2656 6.2585 57.4083C6.07293 57.5511 5.94446 57.7224 5.87309 57.9222C5.80172 58.122 5.80172 58.3504 5.88736 58.6359L6.21568 59.7065L8.78509 58.9071C9.07058 58.8215 9.25615 58.7358 9.37035 58.6502C9.48455 58.5645 9.54164 58.4504 9.55592 58.3219C9.57019 58.1934 9.52737 57.9793 9.456 57.7081L9.68439 57.6367C9.77004 57.9793 9.89851 58.4646 10.0984 59.0642C10.2982 59.7065 10.4552 60.1776 10.5694 60.4773L10.341 60.5487C10.2411 60.2775 10.1554 60.0919 10.0698 59.992C9.98416 59.8921 9.86996 59.8207 9.72721 59.8207C9.58447 59.8207 9.37035 59.8493 9.09913 59.9492L3.56061 61.6621C3.27512 61.7478 3.08955 61.8334 2.97536 61.9191C2.86116 62.0047 2.80406 62.1189 2.78979 62.2474C2.77551 62.3901 2.81834 62.59 2.88971 62.8612L2.66132 62.9326C2.58995 62.6185 2.46147 62.1617 2.27591 61.5622C2.19026 61.2767 2.07606 60.9484 1.96187 60.6058C1.84767 60.2632 1.76202 60.0205 1.7192 59.8921C1.53363 59.3068 1.47653 58.7929 1.51936 58.3362C1.56218 57.8794 1.70492 57.5082 1.93332 57.2085C2.16171 56.9087 2.46147 56.7089 2.83261 56.5947C3.1181 56.509 3.43214 56.4805 3.77473 56.5233C4.11732 56.5661 4.44563 56.7089 4.78822 56.9658C5.13081 57.2227 5.4163 57.5939 5.65897 58.0935L5.6447 57.9507C5.60187 57.5939 5.5876 57.3084 5.6447 57.0657C5.70179 56.8231 5.80172 56.6232 5.94446 56.4519C6.10148 56.2806 6.32987 56.0951 6.62964 55.9238L7.68596 55.2957C7.90007 55.1815 8.07137 55.0673 8.17129 54.9816C8.27121 54.896 8.35686 54.8103 8.39968 54.7247C8.44251 54.639 8.4425 54.5391 8.41396 54.4392C8.37113 54.3107 8.31403 54.2251 8.22839 54.168C8.14274 54.1109 7.99999 54.0395 7.80015 53.9681L7.87152 53.754C8.15701 53.854 8.39968 53.9681 8.5567 54.0966ZM5.14509 57.9222C4.90242 57.6938 4.61693 57.5653 4.31716 57.5368C4.0174 57.5082 3.67481 57.5511 3.2894 57.6795C2.67559 57.8651 2.26163 58.1649 2.03324 58.5503C1.80485 58.9357 1.80485 59.4638 2.00469 60.1062C2.07606 60.3346 2.16171 60.5059 2.24736 60.6058C2.333 60.7057 2.46147 60.7628 2.60422 60.7628C2.74697 60.7628 2.96108 60.72 3.21803 60.6486L5.95874 59.7922L5.73034 59.0356C5.5876 58.5217 5.38775 58.1506 5.14509 57.9222Z" fill="#292F36"/>
<path d="M7.45777 40.5501C8.00021 40.3074 8.32852 39.8506 8.47126 39.1655C8.51409 38.9085 8.51409 38.6516 8.44272 38.4089C8.37134 38.1662 8.24287 37.9521 8.04303 37.7666C7.84319 37.581 7.57197 37.4525 7.21511 37.3954C6.91534 37.3383 6.64412 37.3669 6.38718 37.4668C6.13024 37.5667 5.8733 37.7237 5.63063 37.9379C5.38797 38.152 5.10247 38.4375 4.78843 38.7943C4.43157 39.194 4.11753 39.5223 3.84632 39.7507C3.5751 39.9934 3.27533 40.1647 2.94702 40.2932C2.61871 40.4216 2.24757 40.4359 1.83361 40.3645C1.40537 40.2789 1.04851 40.1219 0.791565 39.8649C0.534623 39.608 0.349055 39.3082 0.263407 38.9513C0.17776 38.5945 0.17776 38.2233 0.249132 37.8237C0.291956 37.581 0.349055 37.3954 0.420427 37.2241C0.4918 37.0528 0.563173 36.9244 0.64882 36.8244C0.734467 36.7245 0.820114 36.6103 0.93431 36.4961C1.07706 36.3391 1.14843 36.2249 1.17698 36.1393C1.19125 36.0679 1.1627 36.0108 1.09133 35.9537C1.01996 35.8966 0.891487 35.8538 0.720193 35.7967L0.763016 35.5397C1.20553 35.6539 1.97635 35.8252 3.10404 36.0393L3.06122 36.2963C2.66153 36.2535 2.29039 36.2677 1.91925 36.3534C1.56239 36.4248 1.24835 36.5818 0.991408 36.8244C0.734467 37.0528 0.563172 37.3811 0.4918 37.7808C0.434702 38.0521 0.448976 38.2947 0.520349 38.5374C0.591721 38.7801 0.720193 38.9656 0.891487 39.1226C1.07706 39.2797 1.29117 39.3796 1.54812 39.4367C1.96208 39.5081 2.31894 39.451 2.61871 39.2511C2.91847 39.0513 3.20396 38.7943 3.47518 38.4946C3.74639 38.1948 3.91769 37.995 4.01761 37.895C4.4173 37.4668 4.74561 37.1385 5.01683 36.8958C5.28804 36.6531 5.58781 36.4819 5.91612 36.3677C6.24444 36.2535 6.6013 36.2392 6.98671 36.3106C7.45777 36.3962 7.84319 36.5818 8.12868 36.853C8.41417 37.1385 8.59974 37.4668 8.69966 37.8665C8.79958 38.2662 8.79958 38.6944 8.71393 39.1512C8.64256 39.5223 8.55691 39.8078 8.42844 40.0362C8.31425 40.2646 8.15723 40.4644 7.98593 40.65C7.84319 40.807 7.77181 40.9212 7.74326 41.0069C7.72899 41.0783 7.75754 41.1354 7.82891 41.1925C7.90028 41.2495 8.02875 41.3066 8.20005 41.3495L8.15723 41.6064C7.74326 41.4922 6.82969 41.3066 5.41651 41.0497L5.45934 40.7928C6.25871 40.8641 6.91534 40.7928 7.45777 40.5501Z" fill="#292F36"/>
<path d="M4.63207 28.5165C4.23239 28.3024 3.7756 28.1026 3.26172 27.9027C3.57576 27.346 4.10392 26.3754 4.81764 24.9907C5.53137 23.6204 6.03098 22.6497 6.30219 22.0645C6.77325 22.3642 7.20149 22.6212 7.5869 22.821C7.92949 23.0066 8.22926 23.135 8.45765 23.235L8.32918 23.4776C7.7582 23.2492 7.32996 23.1065 7.0302 23.0637C6.73043 23.0066 6.45921 23.0637 6.23082 23.2064C6.00243 23.3492 5.77404 23.6347 5.55992 24.0629L5.27443 24.6339L11.1698 27.7029C11.4553 27.8599 11.6837 27.9313 11.8407 27.9456C11.9977 27.9598 12.1405 27.917 12.269 27.8028C12.3974 27.6886 12.5402 27.4745 12.7115 27.1747L12.9256 27.2889C12.7115 27.6458 12.4402 28.1454 12.0977 28.802C11.7408 29.4872 11.4839 30.0154 11.3268 30.3437L11.1127 30.2295C11.2555 29.9154 11.3554 29.6728 11.3697 29.5158C11.3982 29.3445 11.3554 29.2017 11.2412 29.0733C11.127 28.9448 10.9414 28.8163 10.6559 28.6593L4.76055 25.576L4.46078 26.1327C4.23239 26.5609 4.13247 26.9035 4.14674 27.1747C4.16101 27.446 4.27521 27.6886 4.48933 27.9027C4.70345 28.1169 5.06031 28.4023 5.57419 28.7307L5.44572 28.9733C5.26015 28.8591 4.97466 28.7021 4.63207 28.5165Z" fill="#292F36"/>
<path d="M14.7095 12.1153C14.9522 11.8726 15.152 11.6442 15.2947 11.4729L15.466 11.6442C15.3804 11.7727 15.3376 11.9582 15.3518 12.1724C15.3661 12.3865 15.4232 12.6862 15.5374 13.0431L16.8364 16.9115L18.3495 18.4103C18.5636 18.6102 18.7206 18.7529 18.8491 18.81C18.9776 18.8671 19.106 18.8671 19.2345 18.81C19.363 18.7529 19.52 18.6244 19.7341 18.4389L19.9054 18.6102C19.6342 18.8528 19.2773 19.1954 18.8348 19.6379C18.3638 20.109 18.0212 20.4801 17.8071 20.7228L17.6358 20.5515C17.8213 20.3374 17.9498 20.1804 18.0069 20.0519C18.064 19.9234 18.064 19.795 17.9926 19.6665C17.9355 19.538 17.7928 19.3667 17.5929 19.1669L16.3368 17.925L11.5691 16.5261C11.2836 16.4404 11.0695 16.4119 10.9267 16.4262C10.784 16.4404 10.6841 16.4833 10.6127 16.5546L10.4414 16.3833C10.6698 16.1835 10.9267 15.9551 11.1837 15.6839C11.7118 15.1415 12.0973 14.756 12.3114 14.4991L12.4827 14.6704C12.0973 15.0558 12.0116 15.3556 12.2257 15.5697C12.3114 15.6553 12.4256 15.7124 12.5969 15.7695L16.608 17.0114L15.5517 13.8567C15.3947 13.4 15.2377 13.0859 15.0664 12.9289C14.9093 12.7719 14.738 12.7291 14.5525 12.7862C14.3669 12.8433 14.1528 12.986 13.8958 13.2287L13.7245 13.0574C14.0671 12.7433 14.3812 12.4293 14.7095 12.1153Z" fill="#292F36"/>
<path d="M23.346 6.36261C23.2603 6.46253 23.2175 6.591 23.246 6.73375C23.2746 6.87649 23.346 7.07633 23.4887 7.33328L26.2437 12.4436C26.3864 12.7005 26.5006 12.8718 26.6148 12.9717C26.7148 13.0716 26.8432 13.1002 26.9717 13.0859C27.1002 13.0716 27.3 12.986 27.5427 12.8575L28.2992 12.4436C28.7275 12.2152 29.0272 11.9725 29.1843 11.7298C29.3413 11.4872 29.3984 11.2159 29.3555 10.8876C29.3127 10.5593 29.1843 10.1454 28.9559 9.60293L29.1985 9.47446C29.2984 9.70285 29.4412 9.98834 29.6268 10.3309C29.8409 10.7163 30.0978 11.1446 30.4119 11.6156C29.9408 11.844 29.1414 12.258 28.0423 12.8575C26.729 13.5712 25.7298 14.1137 25.0732 14.4991L24.959 14.2992C25.2017 14.1565 25.373 14.028 25.4586 13.9281C25.5442 13.8282 25.5871 13.6997 25.5585 13.557C25.53 13.4142 25.4586 13.2144 25.3159 12.9574L22.5323 7.84716C22.3896 7.59022 22.2754 7.41892 22.1612 7.319C22.0613 7.21908 21.9328 7.19053 21.8043 7.20481C21.6616 7.21908 21.476 7.29045 21.2191 7.41892L21.1191 7.20481C21.4189 7.07633 21.8614 6.84794 22.4467 6.51963C23.0034 6.21986 23.4316 5.97719 23.7314 5.79163L23.8456 5.99147C23.6029 6.13421 23.4459 6.26269 23.346 6.36261Z" fill="#292F36"/>
<path d="M40.7309 7.27604C40.8165 7.70428 40.945 8.18961 41.102 8.73204C40.5739 8.81769 39.7031 8.97471 38.4755 9.21738C37.0052 9.50287 35.9061 9.73126 35.1495 9.90255L35.1067 9.67416C35.3779 9.60279 35.5778 9.54569 35.692 9.46004C35.8062 9.38867 35.8775 9.27448 35.8918 9.146C35.9061 9.00326 35.8918 8.78914 35.8347 8.50365L34.7213 2.80811C34.6642 2.52262 34.6071 2.32278 34.5215 2.19431C34.4358 2.06584 34.3502 1.99446 34.2074 1.98019C34.0789 1.95164 33.8648 1.96591 33.5936 2.00874L33.5508 1.78034C34.3073 1.65187 35.4207 1.45203 36.8767 1.16654C38.0044 0.938148 38.8038 0.781127 39.2606 0.666931C39.3034 1.18081 39.3748 1.6376 39.4462 2.03729C39.5033 2.33705 39.5604 2.56544 39.6175 2.73674L39.3605 2.79384C39.2035 2.3085 39.0608 1.95164 38.9323 1.72325C38.8038 1.49485 38.6182 1.35211 38.4041 1.28074C38.1757 1.20936 37.876 1.20936 37.462 1.29501L36.5056 1.48058C36.2344 1.53768 36.0346 1.59478 35.9204 1.66615C35.8062 1.73752 35.7348 1.83744 35.7062 1.98019C35.692 2.12293 35.7062 2.33705 35.7633 2.62254L36.2915 5.3347L37.048 5.17768C37.4335 5.10631 37.6618 4.93502 37.7475 4.67808C37.8331 4.42113 37.8617 4.17847 37.8474 3.9358C37.8331 3.69313 37.8189 3.53611 37.8189 3.46474L38.0758 3.40764C38.1186 3.79305 38.1757 4.14992 38.2471 4.49251L38.3613 5.03494C38.4327 5.42035 38.5611 5.96278 38.7467 6.64796L38.4898 6.70506C38.4755 6.64796 38.4184 6.47667 38.3185 6.16263C38.2186 5.84859 38.0758 5.63447 37.8617 5.506C37.6476 5.37753 37.4049 5.34898 37.0909 5.40608L36.3343 5.54882L36.8767 8.30381C36.9338 8.5893 36.9909 8.78914 37.0623 8.91761C37.1337 9.03181 37.2336 9.10318 37.3764 9.13173C37.5048 9.146 37.7189 9.13173 37.9902 9.07463L38.8324 8.90334C39.3034 8.80342 39.6603 8.67494 39.8887 8.50365C40.1171 8.33236 40.2455 8.08969 40.3026 7.78992C40.3597 7.49016 40.3597 7.06192 40.3169 6.50522L40.5739 6.44812C40.6167 6.66224 40.6595 6.93345 40.7309 7.27604Z" fill="#292F36"/>
</svg>
